<?xml version="1.0" encoding="UTF-8"?>
<svg id="_レイヤー_1" data-name="レイヤー_1" xmlns="http://www.w3.org/2000/svg" version="1.1" viewBox="0 0 442 140.2">
  <!-- Generator: Adobe Illustrator 29.6.1, SVG Export Plug-In . SVG Version: 2.1.1 Build 9)  -->
  <defs>
    <style>
      .st0 {
        fill: #040000;
      }
    </style>
  </defs>
  <g>
    <path class="st0" d="M54.7,41.6c3.8,3.5,5.8,7.9,5.9,13.4v45.8h-16.3v-40c-.2-3.2-1.1-5.7-2.8-7.6-1.7-1.8-4.3-2.8-7.7-2.9-5.1,0-9.2,2.2-12.5,6.5-3.3,4.3-4.9,9.9-4.9,16.6v27.4H0v-61.7h14.7l1.2,10.9c2.2-4.3,5.5-7.6,9.7-10,4.2-2.4,9.1-3.6,14.7-3.6s10.5,1.7,14.4,5.2Z"/>
    <path class="st0" d="M80.9,10.8c1.9-1.7,4.1-2.6,6.6-2.6s4.5.9,6.3,2.6c1.9,1.7,2.8,3.8,2.8,6.2s-.9,4.5-2.8,6.1c-1.9,1.7-4,2.5-6.3,2.5s-4.6-.8-6.6-2.5c-1.9-1.7-2.9-3.7-2.9-6.1s1-4.5,2.9-6.2ZM95,39v61.7h-16.3v-61.7h16.3Z"/>
    <path class="st0" d="M125.9,10.8c-1.9-1.7-4-2.6-6.3-2.6s-4.6.9-6.6,2.6c-1.9,1.7-2.9,3.8-2.9,6.2s1,4.5,2.9,6.1c1.9,1.7,4.1,2.5,6.6,2.5s4.5-.8,6.3-2.5c1.9-1.7,2.8-3.7,2.8-6.1s-.9-4.5-2.8-6.2Z"/>
    <path class="st0" d="M143.6,39v61.7h16.3v-61.7h-16.3Z"/>
    <path class="st0" d="M230.6,41.6c3.8,3.5,5.8,7.9,5.9,13.4v45.8h-16.3v-40c-.2-3.2-1.1-5.7-2.8-7.6-1.7-1.8-4.3-2.8-7.7-2.9-5.1,0-9.2,2.2-12.5,6.5-3.3,4.3-4.9,9.9-4.9,16.6v27.4h-16.3v-61.7h14.7l1.2,10.9c2.2-4.3,5.5-7.6,9.7-10,4.2-2.4,9.1-3.6,14.7-3.6s10.5,1.7,14.4,5.2Z"/>
    <path class="st0" d="M291.9,83.6l7.4,12.1c-3.3,2-6.9,3.7-10.7,4.9-3.8,1.2-7.4,1.8-10.9,1.8-7.1,0-13.3-1.4-18.5-4.2-5.2-2.8-9.2-6.7-12-11.7-2.8-5-4.2-10.7-4.2-17.1s1.6-11.6,4.7-16.6c3.1-5.1,7.3-9.1,12.7-12,5.4-3,11.2-4.5,17.5-4.5s15.3,2.5,20.9,7.4c5.5,4.9,9.2,11.8,11.1,20.8l-47.6,16.1c1.7,2.5,3.8,4.5,6.6,5.8,2.7,1.4,5.7,2,9,2s9.2-1.6,13.9-4.8ZM264.1,54.5c-3.3,3.6-4.9,8.3-4.9,14s0,1.9.1,2.5l32.4-11.5c-1.3-3-3.1-5.5-5.5-7.4-2.4-1.9-5.6-2.9-9.5-2.9s-9.4,1.8-12.6,5.4Z"/>
    <path class="st0" d="M360.9,100.4c-3.9,1.3-7.9,2-11.9,2-6.8,0-12.8-1.3-18-3.9-5.2-2.6-9.2-6.4-12-11.3-2.8-4.9-4.2-10.7-4.2-17.3s1.5-12.2,4.5-17.2c3-4.9,7-8.7,12-11.3,5-2.6,10.4-3.9,16.1-3.9,9.7,0,17.8,2.6,24.1,7.9l-8.2,10.7c-1.8-1.5-4-2.7-6.5-3.7-2.5-1-5.1-1.5-8-1.5-5,0-9.2,1.8-12.6,5.5-3.5,3.6-5.2,8.2-5.2,13.6s1.8,10,5.5,13.6c3.6,3.6,8.3,5.5,13.9,5.5s9-1.4,12.3-4.1l8.2,10.2c-2.7,2.2-6.1,4-10,5.3Z"/>
    <path class="st0" d="M377.5,52.5c3-5.1,7.1-9,12.3-11.9,5.3-2.9,11.2-4.3,18-4.3s12.7,1.4,17.9,4.3c5.2,2.9,9.2,6.8,12,11.8,2.8,5,4.2,10.6,4.2,16.9s-1.4,11.8-4.2,16.9c-2.8,5-6.8,9-12,11.9-5.2,2.9-11.2,4.4-18,4.4s-12.6-1.3-17.8-4-9.4-6.5-12.3-11.5c-3-5-4.5-10.9-4.5-17.6s1.5-11.7,4.5-16.8ZM394.7,83.3c3.4,3.7,7.6,5.6,12.7,5.6s9.6-1.8,12.9-5.5c3.4-3.7,5-8.4,5-14s-1.7-10.3-5-14.1c-3.4-3.7-7.7-5.6-12.9-5.6s-9.3,1.9-12.7,5.8c-3.4,3.8-5.1,8.5-5.1,13.9s1.7,10.2,5.1,13.9Z"/>
  </g>
  <g>
    <path class="st0" d="M162.2,19.1c0,1.6-.5,3.5-1.7,4.5-2.4,2-5.7,2.5-8.6,2.4s-6.4-.4-8.4-2.9c-2.4-2.9-1.1-7.9.8-10.7,1.7-2.5,4.7-4.2,7.8-4.2s6.1,1.5,7.9,4c1.2,1.8,2.2,4.4,2.2,6.8Z"/>
    <g>
      <circle cx="145.4" cy="4" r="4"/>
      <circle cx="159" cy="4" r="4"/>
    </g>
    <g>
      <circle cx="136.2" cy="14.8" r="4"/>
      <circle cx="168.3" cy="14.8" r="4"/>
    </g>
  </g>
  <path class="st0" d="M127.3,104.1c-.2,4.2-.8,8.4-2,12.4-4,13.7-16.3,21.1-29.8,23.3-9.3,1.5-17.5-1.3-23.6-5.2-5.3-3.4-15.8-11.2-10.8-18.6s6.7-4.2,9.8-2.2c2,1.3,3.2,3.5,4.8,5.4,4.9,5.9,13.6,8.1,20.8,5.4,6.8-2.5,11.1-8.9,13.1-15.6s2-12.9,1.8-19.5c-.3-9.8-.2-19.4-.2-29.2,0-1.2,0-21.2,0-21.2,0,0,16.3,0,16.3,0v31.2c0,7.1,0,14.2,0,21.3,0,4.1,0,8.3-.2,12.5Z"/>
</svg>